<?xml version="1.0" encoding="UTF-8"?><svg id="_图层_1" xmlns="http://www.w3.org/2000/svg" width="8.56mm" height="7.7mm" viewBox="0 0 24.27 21.82"><defs><style>.cls-1{fill:#1d93ab;}</style></defs><path class="cls-1" d="M14.62,15.77c.76-.22,1.52-.31,2.22-.25V7.51l-3.82,1.16c-.07-.3-.19-.59-.33-.86l4.16-2.63v-1.78C15.09,1.32,12.47,0,9.54,0,4.27,0,0,4.27,0,9.54s4.27,9.54,9.54,9.54c.56,0,1.11-.05,1.65-.15,.04-.31,.14-.61,.3-.92,.53-.98,1.7-1.82,3.13-2.24Zm9.49-6.84c.42,2.23-.05,3.86-.68,4.97-.27,.47-.57,.85-.84,1.14-.46,.49-.84,.72-.84,.72,0,0,.21-.41,.38-1.04,.14-.51,.26-1.18,.22-1.89-.04-.71-.24-1.47-.74-2.17-.6-.85-1.31-1.34-1.92-1.62-.02,0-.03-.01-.05-.02-.2-.09-.39-.16-.56-.2v9.54c.01,.11,0,.23,0,.35,0,0,0,0,0,0,0,0,0,0,0,0-.07,.61-.43,1.3-1.03,1.88-.45,.43-1.03,.79-1.71,1.01-.97,.3-1.94,.29-2.71,.03-.74-.25-1.29-.73-1.5-1.38-.16-.51-.08-1.06,.2-1.58,.43-.82,1.34-1.55,2.51-1.91,.4-.12,.79-.19,1.18-.22,.28-.02,.56-.01,.82,.02h.07c.2,.04,.4,.08,.58,.14,.15,.05,.28,.1,.41,.16,.01-.01,.03-.02,.04-.02V2.95s.43,.08,1.06,.31c.03-.1,.05,.02,.05,.02,1.59,.59,4.39,2.12,5.06,5.65Zm-7.38,6.64s.08,0,.12,.01c-.04,.05-.08,.09-.12,.14v-.15ZM3.91,3.76c1.08-1.08,2.4-1.79,3.79-2.12l1.12,4.33c-.64,.15-1.25,.46-1.74,.95-.15,.14-.27,.3-.38,.47l-3.62-2.62c.25-.35,.53-.69,.84-1.01Zm.57,11.98c-1.04-.85-1.86-1.95-2.38-3.21l4.14-1.68c.23,.57,.61,1.06,1.09,1.43-.92,1.14-1.97,2.43-2.85,3.46Zm5.07-3.86c-1.32,0-2.38-1.07-2.38-2.38s1.07-2.38,2.38-2.38,2.38,1.06,2.38,2.38-1.07,2.38-2.38,2.38Z"/></svg>