<?xml version="1.0" standalone="no"?><!DOCTYPE svg PUBLIC "-//W3C//DTD SVG 1.1//EN" "http://www.w3.org/Graphics/SVG/1.1/DTD/svg11.dtd"><svg class="icon" width="17px" height="17.00px" viewBox="0 0 1024 1024" version="1.1" xmlns="http://www.w3.org/2000/svg"><path d="M960 576h-32a64 64 0 0 1 0-128h32a64 64 0 0 1 0 128z m-107.584-312.896a64 64 0 1 1-90.496-90.496l22.592-22.656a64 64 0 0 1 90.496 90.496zM514.56 799.68a288.192 288.192 0 1 1 288.256-288.128 288.2432 288.2432 0 0 1-288.256 288.128zM512 160a64 64 0 0 1-64-64v-32a64 64 0 0 1 128 0v32a64 64 0 0 1-64 64zM172.608 263.104l-22.656-22.656a64 64 0 0 1 90.496-90.496l22.656 22.656a64 64 0 0 1-90.496 90.496zM160 512a64 64 0 0 1-64 64h-32a64 64 0 0 1 0-128h32a64 64 0 0 1 64 64z m13.568 248.896a64 64 0 0 1 90.496 90.496l-22.592 22.656a64 64 0 1 1-90.496-90.496zM512 864a64 64 0 0 1 64 64v32a64 64 0 0 1-128 0v-32a64 64 0 0 1 64-64z m339.392-103.104l22.656 22.656a64 64 0 0 1-90.496 90.496l-22.656-22.656a64 64 0 0 1 90.496-90.496z" fill="#1D93AB" /></svg>