<?xml version="1.0" standalone="no"?><!DOCTYPE svg PUBLIC "-//W3C//DTD SVG 1.1//EN" "http://www.w3.org/Graphics/SVG/1.1/DTD/svg11.dtd"><svg class="icon" width="17px" height="17.00px" viewBox="0 0 1024 1024" version="1.1" xmlns="http://www.w3.org/2000/svg"><path d="M512 128C299.2 128 128 299.2 128 512s171.2 384 384 384 384-171.2 384-384S724.8 128 512 128z m-48 512c0 25.6-22.4 48-48 48s-48-22.4-48-48V384c0-27.2 22.4-48 48-48s48 20.8 48 48v256z m192 0c0 25.6-22.4 48-48 48s-48-22.4-48-48V384c0-27.2 22.4-48 48-48s48 20.8 48 48v256z" fill="#1D93AB" /></svg>