<?xml version="1.0" encoding="UTF-8"?><svg id="_图层_1" xmlns="http://www.w3.org/2000/svg" width="7.33mm" height="8.74mm" viewBox="0 0 20.79 24.78"><defs><style>.cls-1{fill:#1d93ab;}</style></defs><path class="cls-1" d="M15.95,.12c-.69-.22-1.45-.12-2.11,.07-.68,.19-1.36,.5-1.95,.81-.54,.28-1.02,.58-1.39,.82-.09-.07-.19-.13-.3-.17-.32-.12-.65-.11-.97-.02-.03,0-.06,.02-.08,.03-1.77,.69-3.13,1.95-4.03,2.99-.34,.39-.61,.76-.83,1.07-.05-.02-.1-.03-.15-.03-.47-.07-.81,.21-1,.43C.18,9.66-.26,12.81,.11,15.12c.15,.93,.46,1.84,.9,2.67,.24,.48,.4,1.04,.48,1.62-.49,1.41-.92,2.84-1.28,4.28-.1,.4,.13,.81,.52,.94,.09,.04,.18,.06,.27,.07,2.43,.16,5.75,.07,8.48-.31,1.36-.19,2.62-.45,3.55-.8,.46-.18,.9-.39,1.23-.67,.33-.28,.65-.69,.65-1.25,0-.36-.09-.7-.27-.99-.17-.26-.4-.48-.67-.63-.46-.27-1.03-.38-1.45-.47h-.03c-.47-.1-.78-.16-1-.27-.03-.01-.05-.03-.08-.04,.11-.08,.31-.18,.62-.29,.64-.22,1.56-.39,2.6-.51,2.05-.24,4.36-.28,5.36-.28,.43,0,.78-.35,.78-.78,0-.43-.35-.78-.78-.78-1.02,0-3.4,.04-5.54,.3-1.06,.12-2.11,.31-2.92,.58-.4,.13-.79,.31-1.09,.55-.31,.24-.62,.63-.62,1.16,0,.36,.1,.68,.3,.96,.2,.27,.45,.44,.69,.55,.4,.2,.91,.3,1.3,.37l.11,.02c.47,.09,.78,.17,.97,.29,.05,.02,.09,.06,.13,.11,.02,.04,.03,.08,.03,.12-.03,.03-.05,.06-.08,.08-.14,.12-.39,.26-.78,.41-.77,.29-1.89,.53-3.21,.72-2.31,.32-5.09,.43-7.3,.34,.17-.65,.36-1.29,.56-1.93,.41-.23,.85-.29,1.35-.37h.09c.44-.08,1.14-.3,1.94-.65,.95-.41,1.87-.91,2.74-1.48,1.9-1.26,3.92-3.15,4.67-5.7,0-.03,.02-.07,.02-.1,.05-.31,.05-.65-.07-.95-.02-.04-.03-.08-.05-.12,.84-.94,1.58-1.96,2.21-3.05,.45-.79,.84-1.62,1.04-2.38,.14-.56,.22-1.21,.02-1.79,.26-.46,.47-.95,.63-1.46,.15-.48,.26-1.08,.14-1.65-.13-.65-.56-1.19-1.32-1.43h0ZM1.5,19.4c2.72-7.78,6.69-12.61,8.54-14.56,.31-.3,.8-.3,1.11,0,.29,.29,.3,.76,.03,1.07-1.84,1.94-6,7.01-8.63,15.3l-1.05-1.81h0Zm9.86-.06h0s0,0,0,0Zm2,2.28h0s0,0,0,0h0s0,0,0,0Z"/></svg>