<?xml version="1.0" encoding="UTF-8"?><svg id="_图层_1" xmlns="http://www.w3.org/2000/svg" width="14.57" height="16.78" viewBox="0 0 14.57 16.78"><defs><style>.cls-1{fill:#1d93ab;}</style></defs><path class="cls-1" d="M0,3.52v-1.34c0-.4,.33-.73,.73-.73H4.9V.73c0-.4,.33-.73,.73-.73h3.3c.4,0,.73,.33,.73,.73v.73h4.18c.4,0,.73,.33,.73,.73v1.34H0Zm12.53,12.53c0,.4-.33,.73-.73,.73H2.77c-.4,0-.73-.33-.73-.73L.58,4.03H13.99l-1.46,12.02ZM5.25,6.8c0-.4-.33-.73-.73-.73s-.73,.33-.73,.73v7.29c0,.4,.33,.73,.73,.73s.73-.33,.73-.73V6.8Zm2.72,0c0-.4-.33-.73-.73-.73s-.73,.33-.73,.73v7.29c0,.4,.33,.73,.73,.73s.73-.33,.73-.73V6.8Zm2.77,0c0-.4-.33-.73-.73-.73s-.73,.33-.73,.73v7.29c0,.4,.33,.73,.73,.73s.73-.33,.73-.73V6.8Z"/></svg>