<?xml version="1.0" encoding="UTF-8"?><svg id="_图层_1" xmlns="http://www.w3.org/2000/svg" width="16.99" height="16.71" viewBox="0 0 16.99 16.71"><defs><style>.cls-1{fill:#1d93ab;}</style></defs><path class="cls-1" d="M16.9,8.19l-3.13-3.88c-.32-.43-.97-.43-1.29,0l-3.13,3.88c-.22,.32,0,.75,.32,.75h.81c.21,0,.38,.17,.38,.38-.01,2.2-.23,4.93-4.1,7.17-.11,.11,0,.22,.11,.22,7.11-1.1,8.18-5.65,8.29-7.41,.01-.2,.18-.35,.38-.35h.93c.43,0,.65-.43,.43-.75Zm-9.59-.43h-.81c-.21,0-.38-.17-.38-.38,.01-2.2,.23-4.93,4.1-7.17,.11-.11,0-.22-.11-.22C3,1.1,1.94,5.65,1.82,7.41c-.01,.2-.18,.35-.38,.35H.52c-.43,0-.65,.43-.43,.75l3.13,3.88c.32,.43,.97,.43,1.29,0l3.13-3.88c.22-.32,0-.75-.32-.75Z"/></svg>