<?xml version="1.0" encoding="UTF-8"?><svg id="_图层_1" xmlns="http://www.w3.org/2000/svg" width="14.92" height="16.48" viewBox="0 0 14.92 16.48"><defs><style>.cls-1{fill:#1d93ab;}</style></defs><path class="cls-1" d="M14.61,3.6L10.79,.37c-.22-.22-.67-.37-.97-.37H3.45c-.3,0-.52,.22-.52,.45v1.95H.52c-.3,.07-.52,.22-.52,.52v13.11c0,.22,.22,.45,.52,.45H11.54c.3,0,.52-.22,.52-.45v-1.95h2.32c.3,0,.52-.22,.52-.45V4.42c.07-.3-.07-.67-.3-.82h.01ZM3.67,7.72c0-.22,.22-.45,.52-.45h3.75c.3,0,.52,.22,.52,.45v.07c0,.22-.22,.45-.52,.45h-3.75c-.3,0-.52-.22-.52-.52Zm0,2.25c0-.22,.22-.45,.52-.45h3.75c.3,0,.52,.22,.52,.45v.07c0,.22-.22,.45-.52,.45h-3.75c-.15,0-.22,0-.37-.07-.07-.07-.15-.22-.15-.45Zm4.79,2.4c0,.22-.22,.45-.52,.45h-3.75c-.15,0-.22-.07-.37-.15s-.22-.22-.22-.37v-.07c0-.22,.22-.45,.52-.45h3.75c.37,.07,.6,.3,.6,.6h-.01Zm5.02-.31c0,.22-.15,.37-.45,.45h-.97V6.82c0-.22-.15-.6-.37-.82l-3.82-3.22c-.22-.15-.67-.3-.97-.3h-2.17v-.6c.07-.22,.3-.37,.52-.37h3.82c.3,0,.67,0,.97,.3l3.15,2.62c.22,.15,.3,.37,.3,.6v7.04h-.01Z"/></svg>