<?xml version="1.0" encoding="UTF-8"?><svg id="_图层_1" xmlns="http://www.w3.org/2000/svg" width="17" height="14.14" viewBox="0 0 17 14.14"><defs><style>.cls-1{fill:#1d93ab;}</style></defs><path class="cls-1" d="M3.93,5.29s-.04-.08-.03-.13c.02-.04,.05-.07,.1-.07h2.85V.35c0-.09,.03-.18,.08-.24,.05-.06,.13-.1,.22-.1h2.79c.08,0,.16,.03,.22,.1,.06,.06,.09,.15,.09,.24V5.09s2.85,0,2.85,0c.04,0,.08,.03,.1,.08,.01,.04,0,.09-.03,.12l-4.41,4.6c-.05,.06-.13,.09-.21,.09s-.16-.03-.21-.09L3.93,5.29h0ZM.18,9.91l2.55-2.13c.18-.13,.38-.21,.6-.22h1.01l-2.89,2.63h3.34s1.25,1.92,1.25,1.92h4.92l1.2-1.91h3.33s-2.99-2.63-2.99-2.63h1.17c.21,.01,.42,.09,.6,.22l2.55,2.13c.15,.14,.21,.36,.16,.56l-1.02,3.33c-.06,.19-.24,.33-.44,.34H1.46c-.2-.01-.37-.15-.44-.34L.02,10.46c-.05-.2,0-.42,.16-.56h0s0,0,0,0Zm-.11,0"/></svg>