<?xml version="1.0" standalone="no"?><!DOCTYPE svg PUBLIC "-//W3C//DTD SVG 1.1//EN" "http://www.w3.org/Graphics/SVG/1.1/DTD/svg11.dtd"><svg class="icon" width="17px" height="17.00px" viewBox="0 0 1024 1024" version="1.1" xmlns="http://www.w3.org/2000/svg"><path d="M542.72 399.36h15.36c61.44-5.12 107.52-5.12 143.36-10.24h10.24c5.12 0 10.24 0 10.24 5.12-5.12 10.24-5.12 15.36-5.12 15.36 5.12 30.72 5.12 66.56 5.12 102.4 0 30.72 0 66.56-5.12 92.16v10.24c0 5.12-5.12 5.12-10.24 5.12h-5.12c-46.08-5.12-97.28-10.24-153.6-10.24h-10.24c-5.12 0-10.24-5.12-10.24-10.24V409.6c10.24-5.12 10.24-10.24 15.36-10.24zM307.2 614.4v-10.24c-5.12-30.72-5.12-61.44-5.12-92.16 0-35.84 0-71.68 5.12-107.52v-10.24c0-5.12 5.12-5.12 10.24-5.12h10.24c40.96 5.12 92.16 10.24 143.36 10.24h10.24c5.12 0 10.24 5.12 10.24 10.24v194.56c0 5.12-5.12 10.24-10.24 10.24h-5.12c-56.32 0-107.52 5.12-153.6 10.24h-5.12c-5.12 0-10.24-5.12-10.24-10.24zM486.4 87.04v256c0 5.12-5.12 10.24-10.24 10.24-56.32 0-102.4-5.12-143.36-10.24h-5.12c-5.12 0-5.12-5.12-5.12-10.24v-5.12c25.6-102.4 76.8-184.32 153.6-240.64 0 0 5.12 0 5.12-5.12 0 0 5.12 0 5.12 5.12z m51.2 0c0-5.12 0-5.12 5.12-5.12h5.12l5.12 5.12c71.68 56.32 122.88 133.12 148.48 230.4 0 5.12 0 5.12 5.12 10.24 0 5.12 0 10.24-5.12 10.24h-5.12c-40.96 5.12-87.04 10.24-133.12 10.24h-10.24c-5.12 0-10.24-5.12-10.24-10.24V87.04h-5.12zM322.56 670.72h10.24c40.96-5.12 87.04-10.24 138.24-10.24h5.12c5.12 0 10.24 5.12 10.24 10.24v266.24c0 5.12-5.12 10.24-10.24 10.24h-5.12l-5.12-5.12c-76.8-56.32-122.88-138.24-148.48-240.64 0-5.12 0-5.12-5.12-10.24 5.12-15.36 5.12-20.48 10.24-20.48z m384 10.24v10.24c-25.6 102.4-76.8 184.32-148.48 240.64 0 0-5.12 5.12-10.24 5.12-5.12 5.12-10.24 0-10.24 0V665.6c0-5.12 5.12-10.24 10.24-10.24h10.24c51.2 0 92.16 5.12 133.12 10.24h10.24c5.12 5.12 5.12 10.24 5.12 15.36 0-5.12 0-5.12 0 0z m66.56-168.96c0-35.84 0-71.68-5.12-102.4 0-5.12 0-10.24-5.12-20.48 0-5.12 0-10.24 5.12-10.24h5.12c51.2-10.24 97.28-30.72 128-51.2H916.48c5.12 5.12 5.12 5.12 5.12 10.24 25.6 56.32 35.84 112.64 35.84 179.2 0 56.32-10.24 112.64-30.72 163.84 0 0 0 5.12-5.12 5.12 0 5.12-5.12 5.12-10.24 5.12-30.72-20.48-76.8-40.96-133.12-51.2h-5.12c-5.12 0-5.12-5.12-5.12-10.24v-10.24c5.12-35.84 5.12-71.68 5.12-107.52z m-117.76-424.96c92.16 30.72 168.96 87.04 225.28 163.84 0 5.12 5.12 10.24 10.24 15.36v10.24l-10.24 5.12c-25.6 15.36-61.44 30.72-102.4 40.96H768c-5.12 0-10.24 0-10.24-5.12v-5.12c-20.48-92.16-66.56-168.96-122.88-230.4v-5.12h5.12c0 5.12 10.24 10.24 15.36 10.24z m107.52 593.92h10.24c46.08 10.24 81.92 25.6 107.52 40.96l10.24 5.12c5.12 0 5.12 5.12 0 10.24s-5.12 10.24-5.12 10.24c-56.32 87.04-138.24 153.6-240.64 184.32-5.12 0-10.24 5.12-15.36 5.12-5.12 0-5.12 0-10.24-5.12v-5.12c61.44-61.44 102.4-138.24 122.88-235.52 0-5.12 0-5.12 5.12-10.24h15.36z m-650.24 5.12c-5.12 5.12-10.24 5.12-15.36 0v-5.12c-20.48-51.2-30.72-107.52-30.72-168.96 0-61.44 15.36-122.88 35.84-179.2 0 0 0-5.12 5.12-5.12 0-5.12 5.12-5.12 10.24-5.12l5.12 5.12c30.72 20.48 71.68 35.84 122.88 51.2H256c5.12 0 5.12 5.12 5.12 10.24v10.24c-5.12 35.84-10.24 71.68-10.24 112.64 0 35.84 0 71.68 5.12 102.4v10.24c0 5.12 0 10.24-5.12 10.24h-5.12c-56.32 10.24-102.4 25.6-133.12 51.2zM399.36 87.04c-61.44 61.44-102.4 138.24-128 235.52 0 5.12-5.12 5.12-10.24 5.12H256c-46.08-10.24-81.92-25.6-107.52-40.96l-10.24-10.24c-5.12 0-5.12-5.12 0-10.24l5.12-5.12c56.32-81.92 138.24-143.36 230.4-174.08 5.12 0 15.36-5.12 20.48-5.12 5.12 0 5.12 0 5.12 5.12zM128 732.16l10.24-5.12c25.6-15.36 61.44-30.72 107.52-40.96H256c5.12 0 10.24 0 10.24 5.12v10.24c20.48 97.28 61.44 174.08 122.88 235.52 5.12 5.12 0 5.12 0 10.24h-5.12c-107.52-30.72-194.56-102.4-256-194.56l-5.12-5.12c0-10.24 5.12-15.36 5.12-15.36z" fill="#1D93AB" /></svg>