<?xml version="1.0" standalone="no"?><!DOCTYPE svg PUBLIC "-//W3C//DTD SVG 1.1//EN" "http://www.w3.org/Graphics/SVG/1.1/DTD/svg11.dtd"><svg class="icon" width="17px" height="17.00px" viewBox="0 0 1024 1024" version="1.1" xmlns="http://www.w3.org/2000/svg"><path d="M816.810667 113.777778C868.124444 113.777778 910.222222 155.761778 910.222222 207.075556v609.848888c0 51.313778-42.154667 93.297778-93.468444 93.297778H206.904889A93.468444 93.468444 0 0 1 113.777778 816.924444V207.075556C113.777778 155.818667 155.591111 113.777778 206.961778 113.777778z m-34.133334 568.888889h-200.078222c-14.620444 0-18.090667 8.305778-7.736889 18.488889l88.974222 87.608888c10.353778 10.24 27.306667 10.24 37.660445 0l88.974222-87.608888c10.353778-10.183111 6.826667-18.488889-7.736889-18.488889z m-12.913777-113.777778H254.293333c-14.677333 0-26.680889 12.8-26.680889 28.444444s11.946667 28.444444 26.680889 28.444445h515.527111c14.677333 0 26.680889-12.8 26.680889-28.444445s-11.946667-28.444444-26.680889-28.444444z m0-170.666667H254.293333C239.502222 398.222222 227.555556 411.022222 227.555556 426.666667s11.946667 28.444444 26.680888 28.444444h515.527112c14.677333 0 26.680889-12.8 26.680888-28.444444s-11.946667-28.444444-26.680888-28.444445z m-409.6-163.043555a26.965333 26.965333 0 0 0-37.660445 0l-88.974222 87.608889c-10.353778 10.24-6.826667 18.545778 7.736889 18.545777H441.457778c14.620444 0 18.090667-8.305778 7.736889-18.488889z" fill="#1D93AB" /></svg>