<?xml version="1.0" standalone="no"?><!DOCTYPE svg PUBLIC "-//W3C//DTD SVG 1.1//EN" "http://www.w3.org/Graphics/SVG/1.1/DTD/svg11.dtd"><svg class="icon" width="17px" height="17.00px" viewBox="0 0 1024 1024" version="1.1" xmlns="http://www.w3.org/2000/svg"><path d="M172.8 172.8h512v44.8h44.8v-44.8c-6.4-25.6-25.6-44.8-44.8-44.8h-512c-25.6 0-44.8 19.2-44.8 44.8v512c0 25.6 19.2 44.8 44.8 44.8h44.8v-44.8h-44.8v-512z m576 448h-128v128H531.2v-128h-128V531.2h128v-128h83.2v128h128v89.6zM851.2 256H300.8c-25.6 0-44.8 19.2-44.8 44.8v556.8c0 19.2 19.2 38.4 44.8 38.4h556.8c25.6 0 44.8-19.2 44.8-44.8V300.8c-6.4-25.6-25.6-44.8-51.2-44.8z" fill="#1D93AB" /></svg>