<?xml version="1.0" standalone="no"?><!DOCTYPE svg PUBLIC "-//W3C//DTD SVG 1.1//EN" "http://www.w3.org/Graphics/SVG/1.1/DTD/svg11.dtd"><svg class="icon" width="17px" height="17.00px" viewBox="0 0 1024 1024" version="1.1" xmlns="http://www.w3.org/2000/svg"><path d="M525.996473 907.061728c-113.326279 0-210.850088-40.183422-291.216932-121.001763s-121.001764-177.890653-121.001763-291.216931c0-81.269841 23.026455-157.121693 69.079365-227.104057S289.862434 146.737213 363.908289 112.87478c4.96649-3.160494 9.932981-3.160494 13.996473 1.805996 5.869489 3.160494 7.223986 9.029982 4.96649 15.802469-18.962963 45.149912-27.992945 90.299824-27.992945 136.352734 0 105.199295 37.925926 195.950617 112.874779 270.899471s165.248677 112.87478 270.899471 112.874779c57.791887 0 108.811287-9.029982 150.349207-26.186949 4.96649-3.160494 9.029982-3.160494 13.996472 1.805997 5.869489 3.160494 7.223986 9.029982 4.966491 15.802469-30.250441 80.818342-80.818342 144.931217-149.897708 192.338624-68.627866 48.761905-145.834215 72.691358-232.070546 72.691358z" fill="#1D93AB" /></svg>