<?xml version="1.0" standalone="no"?><!DOCTYPE svg PUBLIC "-//W3C//DTD SVG 1.1//EN" "http://www.w3.org/Graphics/SVG/1.1/DTD/svg11.dtd"><svg class="icon" width="17px" height="17.00px" viewBox="0 0 1024 1024" version="1.1" xmlns="http://www.w3.org/2000/svg"><path d="M115 97.8c-19.4 5-35.8 18.2-44.4 36-5.4 10.8-5.6 12.2-5.6 43.2 0 31 0.2 32.4 5.6 43.2 6.4 13.2 19.6 26.2 33 32.4l9.4 4.4h800l11.2-5.6c13.2-6.4 26.2-19.6 32.4-33 3.8-8.4 4.4-12.8 4.4-41.4 0-28.6-0.6-33-4.4-41.4-6.2-13.4-19.2-26.6-32.4-33l-11.2-5.6-396-0.4c-217.8 0-398.6 0.4-402 1.2zM131 323.2c-2.8 2.8-3 27-2.4 259.4 0.4 234.6 0.8 257.2 3.8 266C146 887 176 916 213 926.2c14.8 4.2 585.2 4.2 600 0 37-10.2 67-39.2 80.6-77.6 3-8.8 3.4-31.4 3.8-266 0.6-232.4 0.4-256.6-2.4-259.4-3-3-37.8-3.2-382-3.2s-379 0.2-382 3.2z m400.4 100.4c12.8 9.2 12.6 6.6 12.6 127.6v109.6l40.6-40.2c43.2-43 45.8-44.6 62.6-42 20.2 3.4 30.8 26 21 45-5 9.6-135.4 139.4-142.8 142.2-7.2 2.8-17.6 2.8-24.8 0-7.4-2.8-137.8-132.6-142.8-142.2-9.8-19 0.8-41.6 21-45 16.8-2.6 19.4-1 62.6 42l40.6 40.2v-109.6c0-107.8 0-109.8 4.2-117.2 8.8-15.6 30.8-20.6 45.2-10.4z" fill="#1D93AB" /></svg>